<svg id="visual" viewBox="0 0 900 450" width="900" height="450" xmlns="http://www.w3.org/2000/svg" xmlns:xlink="http://www.w3.org/1999/xlink" version="1.1"><g stroke-width="1" stroke-linejoin="bevel"><path d="M473 267L401 260L432 354Z" fill="#00cde9" stroke="#001122"></path><path d="M432 354L502 348L473 267Z" fill="#00b5f0" stroke="#001122"></path><path d="M322 213L321 231L401 260Z" fill="#00acf0" stroke="#001122"></path><path d="M401 260L302 392L432 354Z" fill="#00a3f0" stroke="#001122"></path><path d="M395 146L322 213L401 260Z" fill="#00acf0" stroke="#001122"></path><path d="M502 348L575 336L473 267Z" fill="#00e0cb" stroke="#001122"></path><path d="M302 392L400 450L432 354Z" fill="#00c5ec" stroke="#001122"></path><path d="M432 354L536 450L502 348Z" fill="#00acf0" stroke="#001122"></path><path d="M502 348L536 450L575 336Z" fill="#00dad8" stroke="#001122"></path><path d="M575 336L578 249L473 267Z" fill="#00acf0" stroke="#001122"></path><path d="M473 267L395 146L401 260Z" fill="#0199ee" stroke="#001122"></path><path d="M578 249L512 169L473 267Z" fill="#00acf0" stroke="#001122"></path><path d="M272 450L302 392L218 347Z" fill="#00d4e2" stroke="#001122"></path><path d="M321 231L302 392L401 260Z" fill="#00a3f0" stroke="#001122"></path><path d="M512 169L395 146L473 267Z" fill="#00acf0" stroke="#001122"></path><path d="M400 450L536 450L432 354Z" fill="#00d4e2" stroke="#001122"></path><path d="M536 450L582 450L575 336Z" fill="#00e0cb" stroke="#001122"></path><path d="M678 202L622 160L578 249Z" fill="#00dad8" stroke="#001122"></path><path d="M218 347L302 392L321 231Z" fill="#00cde9" stroke="#001122"></path><path d="M302 392L272 450L400 450Z" fill="#01e5bb" stroke="#001122"></path><path d="M197 292L218 347L321 231Z" fill="#00dad8" stroke="#001122"></path><path d="M512 169L422 71L395 146Z" fill="#00c5ec" stroke="#001122"></path><path d="M395 146L298 96L322 213Z" fill="#00dad8" stroke="#001122"></path><path d="M160 204L197 292L321 231Z" fill="#01e5bb" stroke="#001122"></path><path d="M678 202L578 249L717 299Z" fill="#00b5f0" stroke="#001122"></path><path d="M578 249L622 160L512 169Z" fill="#00d4e2" stroke="#001122"></path><path d="M512 169L520 79L422 71Z" fill="#00c5ec" stroke="#001122"></path><path d="M160 204L321 231L322 213Z" fill="#00e0cb" stroke="#001122"></path><path d="M595 120L520 79L512 169Z" fill="#00e0cb" stroke="#001122"></path><path d="M622 160L595 120L512 169Z" fill="#00cde9" stroke="#001122"></path><path d="M422 71L298 96L395 146Z" fill="#00dad8" stroke="#001122"></path><path d="M701 339L578 249L575 336Z" fill="#00b5f0" stroke="#001122"></path><path d="M711 71L622 0L595 120Z" fill="#01e5bb" stroke="#001122"></path><path d="M582 450L701 339L575 336Z" fill="#00cde9" stroke="#001122"></path><path d="M701 339L717 299L578 249Z" fill="#00a3f0" stroke="#001122"></path><path d="M298 96L217 114L322 213Z" fill="#00d4e2" stroke="#001122"></path><path d="M107 387L186 450L218 347Z" fill="#00cde9" stroke="#001122"></path><path d="M218 347L186 450L272 450Z" fill="#00dad8" stroke="#001122"></path><path d="M217 114L160 204L322 213Z" fill="#00a3f0" stroke="#001122"></path><path d="M197 292L107 387L218 347Z" fill="#00cde9" stroke="#001122"></path><path d="M422 71L300 0L298 96Z" fill="#00bdee" stroke="#001122"></path><path d="M298 96L226 0L217 114Z" fill="#01e5bb" stroke="#001122"></path><path d="M490 0L423 0L422 71Z" fill="#00e0cb" stroke="#001122"></path><path d="M490 0L422 71L520 79Z" fill="#00e0cb" stroke="#001122"></path><path d="M582 450L698 450L701 339Z" fill="#00e0cb" stroke="#001122"></path><path d="M782 325L765 263L717 299Z" fill="#00c5ec" stroke="#001122"></path><path d="M622 0L520 79L595 120Z" fill="#00e0cb" stroke="#001122"></path><path d="M622 0L490 0L520 79Z" fill="#00dad8" stroke="#001122"></path><path d="M423 0L300 0L422 71Z" fill="#00acf0" stroke="#001122"></path><path d="M717 299L765 263L678 202Z" fill="#00bdee" stroke="#001122"></path><path d="M711 71L595 120L622 160Z" fill="#00acf0" stroke="#001122"></path><path d="M782 325L717 299L701 339Z" fill="#00cde9" stroke="#001122"></path><path d="M108 92L126 165L217 114Z" fill="#00dad8" stroke="#001122"></path><path d="M217 114L126 165L160 204Z" fill="#0199ee" stroke="#001122"></path><path d="M64 269L107 387L197 292Z" fill="#00a3f0" stroke="#001122"></path><path d="M64 269L197 292L160 204Z" fill="#00d4e2" stroke="#001122"></path><path d="M766 450L782 325L701 339Z" fill="#01e5bb" stroke="#001122"></path><path d="M711 71L622 160L678 202Z" fill="#00d4e2" stroke="#001122"></path><path d="M806 182L711 71L678 202Z" fill="#00a3f0" stroke="#001122"></path><path d="M698 450L766 450L701 339Z" fill="#01e5bb" stroke="#001122"></path><path d="M300 0L226 0L298 96Z" fill="#00cde9" stroke="#001122"></path><path d="M126 165L64 269L160 204Z" fill="#00c5ec" stroke="#001122"></path><path d="M226 0L108 92L217 114Z" fill="#0199ee" stroke="#001122"></path><path d="M0 145L0 258L64 269Z" fill="#00bdee" stroke="#001122"></path><path d="M900 254L806 182L765 263Z" fill="#00acf0" stroke="#001122"></path><path d="M765 263L806 182L678 202Z" fill="#00bdee" stroke="#001122"></path><path d="M833 79L806 182L900 120Z" fill="#00d4e2" stroke="#001122"></path><path d="M0 390L61 450L107 387Z" fill="#00c5ec" stroke="#001122"></path><path d="M107 387L61 450L186 450Z" fill="#00bdee" stroke="#001122"></path><path d="M711 71L717 0L622 0Z" fill="#00dad8" stroke="#001122"></path><path d="M777 0L717 0L711 71Z" fill="#00acf0" stroke="#001122"></path><path d="M0 145L64 269L126 165Z" fill="#00a3f0" stroke="#001122"></path><path d="M64 269L0 390L107 387Z" fill="#00e0cb" stroke="#001122"></path><path d="M0 258L0 390L64 269Z" fill="#01e5bb" stroke="#001122"></path><path d="M833 79L777 0L711 71Z" fill="#01e5bb" stroke="#001122"></path><path d="M900 254L765 263L782 325Z" fill="#00c5ec" stroke="#001122"></path><path d="M806 182L833 79L711 71Z" fill="#00acf0" stroke="#001122"></path><path d="M0 390L0 450L61 450Z" fill="#00acf0" stroke="#001122"></path><path d="M108 92L0 145L126 165Z" fill="#00cde9" stroke="#001122"></path><path d="M0 101L0 145L108 92Z" fill="#0199ee" stroke="#001122"></path><path d="M900 361L900 254L782 325Z" fill="#00c5ec" stroke="#001122"></path><path d="M766 450L900 361L782 325Z" fill="#01e5bb" stroke="#001122"></path><path d="M63 0L0 101L108 92Z" fill="#01e5bb" stroke="#001122"></path><path d="M226 0L63 0L108 92Z" fill="#00d4e2" stroke="#001122"></path><path d="M900 254L900 180L806 182Z" fill="#0199ee" stroke="#001122"></path><path d="M766 450L900 450L900 361Z" fill="#00c5ec" stroke="#001122"></path><path d="M900 180L900 120L806 182Z" fill="#00dad8" stroke="#001122"></path><path d="M833 79L900 0L777 0Z" fill="#00b5f0" stroke="#001122"></path><path d="M63 0L0 0L0 101Z" fill="#00dad8" stroke="#001122"></path><path d="M900 120L900 0L833 79Z" fill="#00bdee" stroke="#001122"></path></g></svg>