<svg width="19" height="17" viewBox="0 0 19 17" fill="none" xmlns="http://www.w3.org/2000/svg">
<path d="M16.823 7.4375C16.4984 7.4375 16.2292 7.67834 16.2292 7.96875H15.01C14.8913 6.99834 14.4638 6.10583 13.8067 5.38334L14.6696 4.61125L14.6775 4.61834C14.9071 4.82375 15.2871 4.82375 15.5167 4.61834C15.7463 4.41292 15.7463 4.07292 15.5167 3.8675L14.6775 3.11667C14.448 2.91125 14.068 2.91125 13.8384 3.11667C13.6088 3.32208 13.6088 3.655 13.8305 3.86042L12.9675 4.6325C12.16 4.05167 11.1705 3.66917 10.0859 3.56292V2.47917H10.0938C10.4184 2.47917 10.6875 2.23833 10.6875 1.94792C10.6875 1.6575 10.4184 1.41667 10.0938 1.41667H8.90629C8.58171 1.41667 8.31254 1.6575 8.31254 1.94792C8.31254 2.23833 8.57379 2.47208 8.89837 2.47917V3.57709C7.81379 3.67625 6.82421 4.06583 6.01671 4.64667L5.15379 3.87458L5.16171 3.8675C5.39129 3.66209 5.39129 3.32208 5.16171 3.11667C4.93212 2.91125 4.55212 2.91125 4.32254 3.11667L3.48337 3.8675C3.25379 4.07292 3.25379 4.41292 3.48337 4.61834C3.71296 4.82375 4.08504 4.82375 4.31462 4.62542L5.17754 5.3975C4.52837 6.12 4.10087 6.99834 3.99004 7.96875H2.77087C2.77087 7.67834 2.50171 7.4375 2.17712 7.4375C1.85254 7.4375 1.58337 7.67834 1.58337 7.96875V9.03125C1.58337 9.32167 1.85254 9.5625 2.17712 9.5625C2.50171 9.5625 2.77087 9.32167 2.77087 9.03125H3.99004C4.10879 10.0017 4.53629 10.88 5.17754 11.6025L4.31462 12.3746C4.08504 12.1692 3.71296 12.1763 3.48337 12.3817C3.25379 12.5871 3.25379 12.9271 3.48337 13.1325L4.32254 13.8833C4.55212 14.0888 4.93212 14.0888 5.16171 13.8833C5.39129 13.6779 5.39129 13.3379 5.16171 13.1325L5.15379 13.1254L6.01671 12.3533C6.82421 12.9342 7.80587 13.3167 8.89046 13.4229V14.5208C8.56587 14.5279 8.30462 14.7617 8.30462 15.0521C8.30462 15.3425 8.57379 15.5833 8.89837 15.5833H10.0859C10.4105 15.5833 10.6796 15.3425 10.6796 15.0521C10.6796 14.7617 10.4105 14.5208 10.0859 14.5208H10.078V13.43C11.1625 13.3308 12.1521 12.9413 12.9596 12.3604L13.8225 13.1325C13.593 13.3379 13.6009 13.6708 13.8305 13.8763C14.06 14.0817 14.44 14.0817 14.6696 13.8763L15.5088 13.1254C15.7384 12.92 15.7384 12.58 15.5088 12.3746C15.2792 12.1692 14.8992 12.1692 14.6696 12.3746L14.6617 12.3817L13.7988 11.6096C14.448 10.8871 14.8834 10.0017 15.0021 9.02417H16.2213C16.2213 9.31459 16.4905 9.55542 16.815 9.55542C17.1396 9.55542 17.4088 9.31459 17.4088 9.02417V7.96167C17.4167 7.67834 17.1475 7.4375 16.823 7.4375ZM10.8855 5.66667C11.3209 5.66667 11.6771 5.98542 11.6771 6.375C11.6771 6.76459 11.3209 7.08334 10.8855 7.08334C10.45 7.08334 10.0938 6.76459 10.0938 6.375C10.0938 5.98542 10.45 5.66667 10.8855 5.66667ZM9.50004 9.20834C9.06462 9.20834 8.70837 8.88959 8.70837 8.5C8.70837 8.11042 9.06462 7.79167 9.50004 7.79167C9.93546 7.79167 10.2917 8.11042 10.2917 8.5C10.2917 8.88959 9.93546 9.20834 9.50004 9.20834ZM8.11462 5.66667C8.55004 5.66667 8.90629 5.98542 8.90629 6.375C8.90629 6.76459 8.55004 7.08334 8.11462 7.08334C7.67921 7.08334 7.32296 6.76459 7.32296 6.375C7.32296 5.98542 7.67921 5.66667 8.11462 5.66667ZM6.72921 9.20834C6.29379 9.20834 5.93754 8.88959 5.93754 8.5C5.93754 8.11042 6.29379 7.79167 6.72921 7.79167C7.16462 7.79167 7.52087 8.11042 7.52087 8.5C7.52087 8.88959 7.16462 9.20834 6.72921 9.20834ZM8.11462 11.3333C7.67921 11.3333 7.32296 11.0146 7.32296 10.625C7.32296 10.2354 7.67921 9.91667 8.11462 9.91667C8.55004 9.91667 8.90629 10.2354 8.90629 10.625C8.90629 11.0146 8.55004 11.3333 8.11462 11.3333ZM10.8855 11.3333C10.45 11.3333 10.0938 11.0146 10.0938 10.625C10.0938 10.2354 10.45 9.91667 10.8855 9.91667C11.3209 9.91667 11.6771 10.2354 11.6771 10.625C11.6771 11.0146 11.3209 11.3333 10.8855 11.3333ZM11.4792 8.5C11.4792 8.11042 11.8355 7.79167 12.2709 7.79167C12.7063 7.79167 13.0625 8.11042 13.0625 8.5C13.0625 8.88959 12.7063 9.20834 12.2709 9.20834C11.8355 9.20834 11.4792 8.88959 11.4792 8.5Z" fill="url(#paint0_linear_19_829)"/>
<defs>
<linearGradient id="paint0_linear_19_829" x1="9.49617" y1="1.41667" x2="9.49617" y2="15.5833" gradientUnits="userSpaceOnUse">
<stop stop-color="#0199EE"/>
<stop offset="1" stop-color="#01E5BB"/>
</linearGradient>
</defs>
</svg>
